<?xml version="1.0" encoding="UTF-8"?>
<svg xmlns="http://www.w3.org/2000/svg" viewBox="0 0 1200 675" width="1200" height="675" font-family="'Noto Sans SC','Microsoft YaHei','PingFang SC',sans-serif">
  <defs>
    <linearGradient id="bg" x1="0" y1="0" x2="1" y2="1">
      <stop offset="0" stop-color="#e85d75"/>
      <stop offset="1" stop-color="#713b77"/>
    </linearGradient>
    <linearGradient id="shade" x1="0" y1="0" x2="1" y2="0">
      <stop offset="0" stop-color="#050816" stop-opacity="0.34"/>
      <stop offset="0.62" stop-color="#050816" stop-opacity="0.10"/>
      <stop offset="1" stop-color="#050816" stop-opacity="0.24"/>
    </linearGradient>
    <pattern id="grid" width="42" height="42" patternUnits="userSpaceOnUse">
      <path d="M 42 0 L 0 0 0 42" fill="none" stroke="#fff" stroke-opacity="0.055" stroke-width="1"/>
    </pattern>
    <clipPath id="art-clip"><rect x="760" y="76" width="368" height="440" rx="32"/></clipPath>
  </defs>

  <rect width="1200" height="675" fill="url(#bg)"/>
  <rect width="1200" height="675" fill="url(#shade)"/>
  <rect width="1200" height="675" fill="url(#grid)"/>
  <path d="M -80 610 L 760 -80 L 910 -80 L 70 690 Z" fill="#fff" opacity="0.045"/>
  <circle cx="1160" cy="-20" r="260" fill="#fff" opacity="0.06"/>

  <text x="80" y="78" font-size="18" font-weight="700" letter-spacing="4" fill="#fff" opacity="0.82">SAKIKO / FIELD NOTES</text>
  <text x="1120" y="78" font-size="18" font-weight="700" letter-spacing="2" text-anchor="end" fill="#fff" opacity="0.82">NO. 12</text>
  <line x1="80" y1="104" x2="1120" y2="104" stroke="#fff" stroke-opacity="0.28"/>

  <g>
    <rect x="80" y="154" width="128" height="38" rx="19" fill="#fff" opacity="0.16"/>
    <text x="144" y="179" text-anchor="middle" font-size="15" font-weight="700" letter-spacing="2" fill="#fff">ARTICLE</text>
  </g>

  <text font-size="43" font-weight="750" fill="#fff" letter-spacing="-1"><tspan x="80" y="270">2026年广东专插本《高等数学》真题回</tspan><tspan x="80" y="332">忆版、答案与考点分析</tspan></text>
  <line x1="80" y1="376" x2="650" y2="376" stroke="#fff" stroke-opacity="0.5"/>
  <text x="80" y="420" font-size="21" fill="#fff" opacity="0.84">专插本 · 高等数学 · 真题</text>

  <rect x="760" y="76" width="368" height="440" rx="32" fill="#fff" opacity="0.09" stroke="#fff" stroke-opacity="0.28"/>
  <g clip-path="url(#art-clip)" transform="translate(-10 28) scale(0.96)">
  <!-- 大积分号 -->
  <text x="900" y="280" font-size="200" fill="rgba(255,255,255,0.92)" font-family="serif" font-style="italic" font-weight="400">∫</text>
  <!-- 积分上下限 -->
  <text x="935" y="130" font-size="22" fill="rgba(255,255,255,0.85)" font-family="serif">∞</text>
  <text x="935" y="300" font-size="22" fill="rgba(255,255,255,0.85)" font-family="serif">0</text>
  <!-- 被积函数 -->
  <text x="955" y="200" font-size="38" fill="#fff" font-family="serif" font-style="italic">f(x)dx</text>
  <!-- 函数曲线 -->
  <path d="M 830 330 Q 920 240 1010 300 T 1080 270" fill="none" stroke="rgba(255,255,255,0.6)" stroke-width="2.5" stroke-dasharray="6 4"/>
  <!-- 坐标轴 -->
  <line x1="830" y1="340" x2="1080" y2="340" stroke="rgba(255,255,255,0.4)" stroke-width="1.5"/>
  <line x1="830" y1="120" x2="830" y2="340" stroke="rgba(255,255,255,0.4)" stroke-width="1.5"/>
  </g>
  <text x="1102" y="492" text-anchor="end" font-size="13" letter-spacing="2" fill="#fff" opacity="0.58">VISUAL INDEX / 12</text>

  <line x1="80" y1="560" x2="1120" y2="560" stroke="#fff" stroke-opacity="0.28"/>
  <text x="80" y="608" font-size="17" letter-spacing="2" fill="#fff" opacity="0.72">2026 / 07 / 17</text>
  <text x="1120" y="608" text-anchor="end" font-size="17" letter-spacing="2" fill="#fff" opacity="0.72">SAKIKOBLOG.INFO</text>
  <circle cx="80" cy="636" r="4" fill="#fff" opacity="0.75"/>
  <line x1="96" y1="636" x2="270" y2="636" stroke="#fff" stroke-opacity="0.3"/>
</svg>
