<?xml version="1.0" encoding="UTF-8"?>
<svg xmlns="http://www.w3.org/2000/svg" viewBox="0 0 1200 675" width="1200" height="675" font-family="'Noto Sans SC','Microsoft YaHei','PingFang SC',sans-serif">
  <defs>
    <linearGradient id="bg" x1="0" y1="0" x2="1" y2="1">
      <stop offset="0" stop-color="#00b894"/>
      <stop offset="1" stop-color="#00cec9"/>
    </linearGradient>
    <linearGradient id="shade" x1="0" y1="0" x2="1" y2="0">
      <stop offset="0" stop-color="#050816" stop-opacity="0.34"/>
      <stop offset="0.62" stop-color="#050816" stop-opacity="0.10"/>
      <stop offset="1" stop-color="#050816" stop-opacity="0.24"/>
    </linearGradient>
    <pattern id="grid" width="42" height="42" patternUnits="userSpaceOnUse">
      <path d="M 42 0 L 0 0 0 42" fill="none" stroke="#fff" stroke-opacity="0.055" stroke-width="1"/>
    </pattern>
    <clipPath id="art-clip"><rect x="760" y="76" width="368" height="440" rx="32"/></clipPath>
  </defs>

  <rect width="1200" height="675" fill="url(#bg)"/>
  <rect width="1200" height="675" fill="url(#shade)"/>
  <rect width="1200" height="675" fill="url(#grid)"/>
  <path d="M -80 610 L 760 -80 L 910 -80 L 70 690 Z" fill="#fff" opacity="0.045"/>
  <circle cx="1160" cy="-20" r="260" fill="#fff" opacity="0.06"/>

  <text x="80" y="78" font-size="18" font-weight="700" letter-spacing="4" fill="#fff" opacity="0.82">SAKIKO / FIELD NOTES</text>
  <text x="1120" y="78" font-size="18" font-weight="700" letter-spacing="2" text-anchor="end" fill="#fff" opacity="0.82">NO. 04</text>
  <line x1="80" y1="104" x2="1120" y2="104" stroke="#fff" stroke-opacity="0.28"/>

  <g>
    <rect x="80" y="154" width="128" height="38" rx="19" fill="#fff" opacity="0.16"/>
    <text x="144" y="179" text-anchor="middle" font-size="15" font-weight="700" letter-spacing="2" fill="#fff">ARTICLE</text>
  </g>

  <text font-size="50" font-weight="750" fill="#fff" letter-spacing="-1"><tspan x="80" y="270">数据结构基础：从数组到并查集</tspan></text>
  <line x1="80" y1="322" x2="650" y2="322" stroke="#fff" stroke-opacity="0.5"/>
  <text x="80" y="366" font-size="21" fill="#fff" opacity="0.84">教程 · C++ · 数据结构</text>

  <rect x="760" y="76" width="368" height="440" rx="32" fill="#fff" opacity="0.09" stroke="#fff" stroke-opacity="0.28"/>
  <g clip-path="url(#art-clip)" transform="translate(-10 28) scale(0.96)">
  <g stroke="rgba(255,255,255,0.8)" stroke-width="2.5" fill="none" stroke-linecap="round">
    <!-- 树枝 -->
    <line x1="940" y1="150" x2="870" y2="220"/>
    <line x1="940" y1="150" x2="1010" y2="220"/>
    <line x1="870" y1="220" x2="830" y2="290"/>
    <line x1="870" y1="220" x2="910" y2="290"/>
    <line x1="1010" y1="220" x2="980" y2="290"/>
    <line x1="1010" y1="220" x2="1050" y2="290"/>
  </g>
  <!-- 节点 -->
  <g>
    <circle cx="940" cy="150" r="18" fill="rgba(255,255,255,0.9)"/>
    <circle cx="870" cy="220" r="16" fill="rgba(255,255,255,0.75)"/>
    <circle cx="1010" cy="220" r="16" fill="rgba(255,255,255,0.75)"/>
    <circle cx="830" cy="290" r="14" fill="rgba(255,255,255,0.6)"/>
    <circle cx="910" cy="290" r="14" fill="rgba(255,255,255,0.6)"/>
    <circle cx="980" cy="290" r="14" fill="rgba(255,255,255,0.6)"/>
    <circle cx="1050" cy="290" r="14" fill="rgba(255,255,255,0.6)"/>
  </g>
  <!-- 节点数值 -->
  <g font-family="'Fira Code',monospace" font-size="14" fill="#2d3436" text-anchor="middle" font-weight="700">
    <text x="940" y="155">1</text>
    <text x="870" y="225">2</text>
    <text x="1010" y="225">3</text>
    <text x="830" y="295">4</text>
    <text x="910" y="295">5</text>
    <text x="980" y="295">6</text>
    <text x="1050" y="295">7</text>
  </g>
  </g>
  <text x="1102" y="492" text-anchor="end" font-size="13" letter-spacing="2" fill="#fff" opacity="0.58">VISUAL INDEX / 04</text>

  <line x1="80" y1="560" x2="1120" y2="560" stroke="#fff" stroke-opacity="0.28"/>
  <text x="80" y="608" font-size="17" letter-spacing="2" fill="#fff" opacity="0.72">2026 / 06 / 02</text>
  <text x="1120" y="608" text-anchor="end" font-size="17" letter-spacing="2" fill="#fff" opacity="0.72">SAKIKOBLOG.INFO</text>
  <circle cx="80" cy="636" r="4" fill="#fff" opacity="0.75"/>
  <line x1="96" y1="636" x2="270" y2="636" stroke="#fff" stroke-opacity="0.3"/>
</svg>
