<?xml version="1.0" encoding="UTF-8"?>
<svg xmlns="http://www.w3.org/2000/svg" viewBox="0 0 1200 675" width="1200" height="675" font-family="'Noto Sans SC','Microsoft YaHei','PingFang SC',sans-serif">
  <defs>
    <linearGradient id="bg" x1="0" y1="0" x2="1" y2="1">
      <stop offset="0" stop-color="#ffb7c5"/>
      <stop offset="1" stop-color="#ffe4b5"/>
    </linearGradient>
    <linearGradient id="shade" x1="0" y1="0" x2="1" y2="0">
      <stop offset="0" stop-color="#050816" stop-opacity="0.34"/>
      <stop offset="0.62" stop-color="#050816" stop-opacity="0.10"/>
      <stop offset="1" stop-color="#050816" stop-opacity="0.24"/>
    </linearGradient>
    <pattern id="grid" width="42" height="42" patternUnits="userSpaceOnUse">
      <path d="M 42 0 L 0 0 0 42" fill="none" stroke="#fff" stroke-opacity="0.055" stroke-width="1"/>
    </pattern>
    <clipPath id="art-clip"><rect x="760" y="76" width="368" height="440" rx="32"/></clipPath>
  </defs>

  <rect width="1200" height="675" fill="url(#bg)"/>
  <rect width="1200" height="675" fill="url(#shade)"/>
  <rect width="1200" height="675" fill="url(#grid)"/>
  <path d="M -80 610 L 760 -80 L 910 -80 L 70 690 Z" fill="#fff" opacity="0.045"/>
  <circle cx="1160" cy="-20" r="260" fill="#fff" opacity="0.06"/>

  <text x="80" y="78" font-size="18" font-weight="700" letter-spacing="4" fill="#fff" opacity="0.82">SAKIKO / FIELD NOTES</text>
  <text x="1120" y="78" font-size="18" font-weight="700" letter-spacing="2" text-anchor="end" fill="#fff" opacity="0.82">NO. 01</text>
  <line x1="80" y1="104" x2="1120" y2="104" stroke="#fff" stroke-opacity="0.28"/>

  <g>
    <rect x="80" y="154" width="128" height="38" rx="19" fill="#fff" opacity="0.16"/>
    <text x="144" y="179" text-anchor="middle" font-size="15" font-weight="700" letter-spacing="2" fill="#fff">ARTICLE</text>
  </g>

  <text font-size="50" font-weight="750" fill="#fff" letter-spacing="-1"><tspan x="80" y="270">你好，世界</tspan></text>
  <line x1="80" y1="322" x2="650" y2="322" stroke="#fff" stroke-opacity="0.5"/>
  <text x="80" y="366" font-size="21" fill="#fff" opacity="0.84">生活 · 博客</text>

  <rect x="760" y="76" width="368" height="440" rx="32" fill="#fff" opacity="0.09" stroke="#fff" stroke-opacity="0.28"/>
  <g clip-path="url(#art-clip)" transform="translate(-10 28) scale(0.96)">
  <!-- 地球：蓝绿圆 -->
  <circle cx="940" cy="220" r="95" fill="rgba(255,255,255,0.18)" stroke="rgba(255,255,255,0.5)" stroke-width="2"/>
  <!-- 经纬线 -->
  <ellipse cx="940" cy="220" rx="95" ry="38" fill="none" stroke="rgba(255,255,255,0.35)" stroke-width="1.5"/>
  <ellipse cx="940" cy="220" rx="95" ry="70" fill="none" stroke="rgba(255,255,255,0.25)" stroke-width="1.5"/>
  <line x1="845" y1="220" x2="1035" y2="220" stroke="rgba(255,255,255,0.35)" stroke-width="1.5"/>
  <line x1="940" y1="125" x2="940" y2="315" stroke="rgba(255,255,255,0.35)" stroke-width="1.5"/>
  <!-- 简化大陆 -->
  <path d="M 905 190 Q 925 175 950 185 Q 970 195 965 215 Q 945 225 920 220 Z" fill="rgba(255,255,255,0.35)"/>
  <path d="M 960 235 Q 985 240 990 260 Q 980 275 965 265 Z" fill="rgba(255,255,255,0.30)"/>
  <!-- 樱花花瓣环绕 -->
  <g transform="translate(820 130) rotate(-20) scale(0.8666666666666667)">
    <path d="M 0 -14 C 5 -12 7 -6 3 -2 C 6 0 7 3 2 4 C 4 7 1 11 -4 8 C -2 11 -7 11 -7 5 C -10 7 -13 3 -9 -1 C -13 -4 -10 -11 -5 -8 C -7 -12 -1 -14 0 -14 Z" fill="rgba(255,255,255,0.85)"/>
  </g>
  <g transform="translate(1050 160) rotate(35) scale(0.7333333333333333)">
    <path d="M 0 -14 C 5 -12 7 -6 3 -2 C 6 0 7 3 2 4 C 4 7 1 11 -4 8 C -2 11 -7 11 -7 5 C -10 7 -13 3 -9 -1 C -13 -4 -10 -11 -5 -8 C -7 -12 -1 -14 0 -14 Z" fill="rgba(255,255,255,0.85)"/>
  </g>
  <g transform="translate(840 320) rotate(60) scale(0.6666666666666666)">
    <path d="M 0 -14 C 5 -12 7 -6 3 -2 C 6 0 7 3 2 4 C 4 7 1 11 -4 8 C -2 11 -7 11 -7 5 C -10 7 -13 3 -9 -1 C -13 -4 -10 -11 -5 -8 C -7 -12 -1 -14 0 -14 Z" fill="rgba(255,255,255,0.85)"/>
  </g>
  <g transform="translate(1060 310) rotate(-10) scale(0.8)">
    <path d="M 0 -14 C 5 -12 7 -6 3 -2 C 6 0 7 3 2 4 C 4 7 1 11 -4 8 C -2 11 -7 11 -7 5 C -10 7 -13 3 -9 -1 C -13 -4 -10 -11 -5 -8 C -7 -12 -1 -14 0 -14 Z" fill="rgba(255,255,255,0.85)"/>
  </g>
  </g>
  <text x="1102" y="492" text-anchor="end" font-size="13" letter-spacing="2" fill="#fff" opacity="0.58">VISUAL INDEX / 01</text>

  <line x1="80" y1="560" x2="1120" y2="560" stroke="#fff" stroke-opacity="0.28"/>
  <text x="80" y="608" font-size="17" letter-spacing="2" fill="#fff" opacity="0.72">2026 / 06 / 01</text>
  <text x="1120" y="608" text-anchor="end" font-size="17" letter-spacing="2" fill="#fff" opacity="0.72">SAKIKOBLOG.INFO</text>
  <circle cx="80" cy="636" r="4" fill="#fff" opacity="0.75"/>
  <line x1="96" y1="636" x2="270" y2="636" stroke="#fff" stroke-opacity="0.3"/>
</svg>
