<?xml version="1.0" encoding="UTF-8"?>
<svg xmlns="http://www.w3.org/2000/svg" viewBox="0 0 1200 675" width="1200" height="675" font-family="'Noto Sans SC','Microsoft YaHei','PingFang SC',sans-serif">
  <defs>
    <linearGradient id="bg" x1="0" y1="0" x2="1" y2="1">
      <stop offset="0" stop-color="#e17055"/>
      <stop offset="1" stop-color="#fdcb6e"/>
    </linearGradient>
    <linearGradient id="shade" x1="0" y1="0" x2="1" y2="0">
      <stop offset="0" stop-color="#050816" stop-opacity="0.34"/>
      <stop offset="0.62" stop-color="#050816" stop-opacity="0.10"/>
      <stop offset="1" stop-color="#050816" stop-opacity="0.24"/>
    </linearGradient>
    <pattern id="grid" width="42" height="42" patternUnits="userSpaceOnUse">
      <path d="M 42 0 L 0 0 0 42" fill="none" stroke="#fff" stroke-opacity="0.055" stroke-width="1"/>
    </pattern>
    <clipPath id="art-clip"><rect x="760" y="76" width="368" height="440" rx="32"/></clipPath>
  </defs>

  <rect width="1200" height="675" fill="url(#bg)"/>
  <rect width="1200" height="675" fill="url(#shade)"/>
  <rect width="1200" height="675" fill="url(#grid)"/>
  <path d="M -80 610 L 760 -80 L 910 -80 L 70 690 Z" fill="#fff" opacity="0.045"/>
  <circle cx="1160" cy="-20" r="260" fill="#fff" opacity="0.06"/>

  <text x="80" y="78" font-size="18" font-weight="700" letter-spacing="4" fill="#fff" opacity="0.82">SAKIKO / FIELD NOTES</text>
  <text x="1120" y="78" font-size="18" font-weight="700" letter-spacing="2" text-anchor="end" fill="#fff" opacity="0.82">NO. 11</text>
  <line x1="80" y1="104" x2="1120" y2="104" stroke="#fff" stroke-opacity="0.28"/>

  <g>
    <rect x="80" y="154" width="128" height="38" rx="19" fill="#fff" opacity="0.16"/>
    <text x="144" y="179" text-anchor="middle" font-size="15" font-weight="700" letter-spacing="2" fill="#fff">ARTICLE</text>
  </g>

  <text font-size="43" font-weight="750" fill="#fff" letter-spacing="-1"><tspan x="80" y="270">Java 零基础入门教程：从 Hello</tspan><tspan x="80" y="332">World 到面向对象</tspan></text>
  <line x1="80" y1="376" x2="650" y2="376" stroke="#fff" stroke-opacity="0.5"/>
  <text x="80" y="420" font-size="21" fill="#fff" opacity="0.84">教程 · Java · 面向对象</text>

  <rect x="760" y="76" width="368" height="440" rx="32" fill="#fff" opacity="0.09" stroke="#fff" stroke-opacity="0.28"/>
  <g clip-path="url(#art-clip)" transform="translate(-10 28) scale(0.96)">
  <g transform="translate(870 160)">
    <!-- 蒸汽 -->
    <path d="M 40 -20 Q 50 -40 40 -60 Q 30 -80 40 -100" fill="none" stroke="rgba(255,255,255,0.55)" stroke-width="3" stroke-linecap="round"/>
    <path d="M 70 -20 Q 80 -45 70 -70 Q 60 -90 70 -110" fill="none" stroke="rgba(255,255,255,0.5)" stroke-width="3" stroke-linecap="round"/>
    <path d="M 100 -20 Q 110 -40 100 -60 Q 90 -80 100 -100" fill="none" stroke="rgba(255,255,255,0.45)" stroke-width="3" stroke-linecap="round"/>
    <!-- 杯身 -->
    <path d="M 10 0 L 130 0 L 120 110 Q 118 120 108 120 L 32 120 Q 22 120 20 110 Z" fill="rgba(255,255,255,0.92)" stroke="rgba(255,255,255,1)" stroke-width="2"/>
    <!-- 杯口咖啡液 -->
    <ellipse cx="70" cy="0" rx="60" ry="8" fill="#5d4037"/>
    <!-- 杯把 -->
    <path d="M 130 20 Q 165 20 165 55 Q 165 90 130 90" fill="none" stroke="rgba(255,255,255,0.92)" stroke-width="8" stroke-linecap="round"/>
    <!-- 杯身 Java 字样 -->
    <text x="70" y="75" font-size="32" font-weight="700" fill="#5d4037" font-family="'Noto Serif SC',serif" text-anchor="middle">Java</text>
  </g>
  </g>
  <text x="1102" y="492" text-anchor="end" font-size="13" letter-spacing="2" fill="#fff" opacity="0.58">VISUAL INDEX / 11</text>

  <line x1="80" y1="560" x2="1120" y2="560" stroke="#fff" stroke-opacity="0.28"/>
  <text x="80" y="608" font-size="17" letter-spacing="2" fill="#fff" opacity="0.72">2026 / 06 / 06</text>
  <text x="1120" y="608" text-anchor="end" font-size="17" letter-spacing="2" fill="#fff" opacity="0.72">SAKIKOBLOG.INFO</text>
  <circle cx="80" cy="636" r="4" fill="#fff" opacity="0.75"/>
  <line x1="96" y1="636" x2="270" y2="636" stroke="#fff" stroke-opacity="0.3"/>
</svg>
