<?xml version="1.0" encoding="UTF-8"?>
<svg xmlns="http://www.w3.org/2000/svg" viewBox="0 0 1200 675" width="1200" height="675" font-family="'Noto Sans SC','Microsoft YaHei','PingFang SC',sans-serif">
  <defs>
    <linearGradient id="bg" x1="0" y1="0" x2="1" y2="1">
      <stop offset="0" stop-color="#f39c12"/>
      <stop offset="1" stop-color="#e74c3c"/>
    </linearGradient>
    <linearGradient id="shade" x1="0" y1="0" x2="1" y2="0">
      <stop offset="0" stop-color="#050816" stop-opacity="0.34"/>
      <stop offset="0.62" stop-color="#050816" stop-opacity="0.10"/>
      <stop offset="1" stop-color="#050816" stop-opacity="0.24"/>
    </linearGradient>
    <pattern id="grid" width="42" height="42" patternUnits="userSpaceOnUse">
      <path d="M 42 0 L 0 0 0 42" fill="none" stroke="#fff" stroke-opacity="0.055" stroke-width="1"/>
    </pattern>
    <clipPath id="art-clip"><rect x="760" y="76" width="368" height="440" rx="32"/></clipPath>
  </defs>

  <rect width="1200" height="675" fill="url(#bg)"/>
  <rect width="1200" height="675" fill="url(#shade)"/>
  <rect width="1200" height="675" fill="url(#grid)"/>
  <path d="M -80 610 L 760 -80 L 910 -80 L 70 690 Z" fill="#fff" opacity="0.045"/>
  <circle cx="1160" cy="-20" r="260" fill="#fff" opacity="0.06"/>

  <text x="80" y="78" font-size="18" font-weight="700" letter-spacing="4" fill="#fff" opacity="0.82">SAKIKO / FIELD NOTES</text>
  <text x="1120" y="78" font-size="18" font-weight="700" letter-spacing="2" text-anchor="end" fill="#fff" opacity="0.82">NO. 05</text>
  <line x1="80" y1="104" x2="1120" y2="104" stroke="#fff" stroke-opacity="0.28"/>

  <g>
    <rect x="80" y="154" width="128" height="38" rx="19" fill="#fff" opacity="0.16"/>
    <text x="144" y="179" text-anchor="middle" font-size="15" font-weight="700" letter-spacing="2" fill="#fff">ARTICLE</text>
  </g>

  <text font-size="50" font-weight="750" fill="#fff" letter-spacing="-1"><tspan x="80" y="270">Git 入门与实用技巧</tspan></text>
  <line x1="80" y1="322" x2="650" y2="322" stroke="#fff" stroke-opacity="0.5"/>
  <text x="80" y="366" font-size="21" fill="#fff" opacity="0.84">教程 · Git</text>

  <rect x="760" y="76" width="368" height="440" rx="32" fill="#fff" opacity="0.09" stroke="#fff" stroke-opacity="0.28"/>
  <g clip-path="url(#art-clip)" transform="translate(-10 28) scale(0.96)">
  <g stroke="rgba(255,255,255,0.85)" stroke-width="3.5" fill="none" stroke-linecap="round">
    <!-- main 分支 -->
    <line x1="840" y1="180" x2="1040" y2="180"/>
    <!-- feature 分支：从 main 分出再合回 -->
    <path d="M 900 180 Q 920 200 920 250 Q 920 290 940 290 Q 960 290 970 240 Q 975 210 990 190 Q 1000 182 1010 180"/>
  </g>
  <!-- 节点圆点 -->
  <g>
    <circle cx="840" cy="180" r="9" fill="#fff"/>
    <circle cx="900" cy="180" r="9" fill="#fff"/>
    <circle cx="970" cy="180" r="9" fill="#fff"/>
    <circle cx="1040" cy="180" r="9" fill="#fff"/>
    <circle cx="920" cy="250" r="9" fill="#ffd700"/>
    <circle cx="960" cy="290" r="9" fill="#ffd700"/>
  </g>
  <!-- 分支标签 -->
  <text x="920" y="330" font-size="20" fill="rgba(255,255,255,0.9)" font-family="'Fira Code',monospace" text-anchor="middle">feature</text>
  <text x="940" y="155" font-size="18" fill="rgba(255,255,255,0.85)" font-family="'Fira Code',monospace" text-anchor="middle">main</text>
  <!-- merge 标记 -->
  <text x="985" y="170" font-size="14" fill="#ffd700" font-family="'Fira Code',monospace" text-anchor="middle">merge</text>
  </g>
  <text x="1102" y="492" text-anchor="end" font-size="13" letter-spacing="2" fill="#fff" opacity="0.58">VISUAL INDEX / 05</text>

  <line x1="80" y1="560" x2="1120" y2="560" stroke="#fff" stroke-opacity="0.28"/>
  <text x="80" y="608" font-size="17" letter-spacing="2" fill="#fff" opacity="0.72">2026 / 06 / 02</text>
  <text x="1120" y="608" text-anchor="end" font-size="17" letter-spacing="2" fill="#fff" opacity="0.72">SAKIKOBLOG.INFO</text>
  <circle cx="80" cy="636" r="4" fill="#fff" opacity="0.75"/>
  <line x1="96" y1="636" x2="270" y2="636" stroke="#fff" stroke-opacity="0.3"/>
</svg>
